<mxfile host="app.diagrams.net" agent="Mozilla/5.0 (Windows NT 10.0; Win64; x64; rv:134.0) Gecko/20100101 Firefox/134.0" version="26.0.6">
  <diagram name="第 1 页" id="1cXBiBJSZhPr0QyIRWKl">
    <mxGraphModel dx="1621" dy="1636" grid="1" gridSize="10" guides="1" tooltips="1" connect="1" arrows="1" fold="1" page="1" pageScale="1" pageWidth="827" pageHeight="1169" math="0" shadow="0">
      <root>
        <mxCell id="0" />
        <mxCell id="1" parent="0" />
        <mxCell id="arF6y5kHUs7Ulyn1KEfK-1" value="promise" style="rounded=0;whiteSpace=wrap;html=1;fillColor=#dae8fc;strokeColor=#6c8ebf;" vertex="1" parent="1">
          <mxGeometry x="40" width="120" height="40" as="geometry" />
        </mxCell>
        <mxCell id="arF6y5kHUs7Ulyn1KEfK-3" value="std::optional&amp;lt;T&amp;gt; value" style="rounded=0;whiteSpace=wrap;html=1;fillColor=#d5e8d4;strokeColor=#82b366;" vertex="1" parent="1">
          <mxGeometry x="40" y="40" width="120" height="240" as="geometry" />
        </mxCell>
        <mxCell id="arF6y5kHUs7Ulyn1KEfK-4" value="Task::next" style="rounded=0;whiteSpace=wrap;html=1;fillColor=#f8cecc;strokeColor=#b85450;" vertex="1" parent="1">
          <mxGeometry x="-280" y="40" width="120" height="40" as="geometry" />
        </mxCell>
        <mxCell id="arF6y5kHUs7Ulyn1KEfK-5" value="caller" style="rounded=0;whiteSpace=wrap;html=1;fillColor=#dae8fc;strokeColor=#6c8ebf;" vertex="1" parent="1">
          <mxGeometry x="-280" width="120" height="40" as="geometry" />
        </mxCell>
        <mxCell id="arF6y5kHUs7Ulyn1KEfK-6" value="callee coroutine" style="rounded=0;whiteSpace=wrap;html=1;fillColor=#dae8fc;strokeColor=#6c8ebf;" vertex="1" parent="1">
          <mxGeometry x="-120" width="120" height="40" as="geometry" />
        </mxCell>
        <mxCell id="arF6y5kHUs7Ulyn1KEfK-7" value="co_yield T" style="rounded=0;whiteSpace=wrap;html=1;fillColor=#f8cecc;strokeColor=#b85450;" vertex="1" parent="1">
          <mxGeometry x="-120" y="120" width="120" height="40" as="geometry" />
        </mxCell>
        <mxCell id="arF6y5kHUs7Ulyn1KEfK-21" value="" style="endArrow=classic;html=1;rounded=0;exitX=1;exitY=0.5;exitDx=0;exitDy=0;entryX=0.022;entryY=0.081;entryDx=0;entryDy=0;entryPerimeter=0;" edge="1" parent="1" source="arF6y5kHUs7Ulyn1KEfK-4" target="arF6y5kHUs7Ulyn1KEfK-3">
          <mxGeometry width="50" height="50" relative="1" as="geometry">
            <mxPoint x="-120" y="220" as="sourcePoint" />
            <mxPoint x="-70" y="170" as="targetPoint" />
          </mxGeometry>
        </mxCell>
        <mxCell id="arF6y5kHUs7Ulyn1KEfK-22" value="1. set to nullopt" style="edgeLabel;html=1;align=center;verticalAlign=middle;resizable=0;points=[];" vertex="1" connectable="0" parent="arF6y5kHUs7Ulyn1KEfK-21">
          <mxGeometry x="0.07" y="1" relative="1" as="geometry">
            <mxPoint as="offset" />
          </mxGeometry>
        </mxCell>
        <mxCell id="arF6y5kHUs7Ulyn1KEfK-23" value="resume coroutine" style="rounded=0;whiteSpace=wrap;html=1;fillColor=#f8cecc;strokeColor=#b85450;" vertex="1" parent="1">
          <mxGeometry x="-280" y="80" width="120" height="40" as="geometry" />
        </mxCell>
        <mxCell id="arF6y5kHUs7Ulyn1KEfK-24" value="" style="endArrow=classic;html=1;rounded=0;exitX=1;exitY=0.5;exitDx=0;exitDy=0;entryX=0;entryY=0.5;entryDx=0;entryDy=0;" edge="1" parent="1" source="arF6y5kHUs7Ulyn1KEfK-23" target="arF6y5kHUs7Ulyn1KEfK-7">
          <mxGeometry width="50" height="50" relative="1" as="geometry">
            <mxPoint x="-120" y="220" as="sourcePoint" />
            <mxPoint x="-70" y="170" as="targetPoint" />
          </mxGeometry>
        </mxCell>
        <mxCell id="arF6y5kHUs7Ulyn1KEfK-26" value="2" style="edgeLabel;html=1;align=center;verticalAlign=middle;resizable=0;points=[];" vertex="1" connectable="0" parent="arF6y5kHUs7Ulyn1KEfK-24">
          <mxGeometry x="-0.2" relative="1" as="geometry">
            <mxPoint as="offset" />
          </mxGeometry>
        </mxCell>
        <mxCell id="arF6y5kHUs7Ulyn1KEfK-27" value="" style="endArrow=classic;html=1;rounded=0;exitX=0.5;exitY=1;exitDx=0;exitDy=0;entryX=0.001;entryY=0.667;entryDx=0;entryDy=0;entryPerimeter=0;" edge="1" parent="1" source="arF6y5kHUs7Ulyn1KEfK-7" target="arF6y5kHUs7Ulyn1KEfK-3">
          <mxGeometry width="50" height="50" relative="1" as="geometry">
            <mxPoint x="-120" y="220" as="sourcePoint" />
            <mxPoint x="-50" y="240" as="targetPoint" />
          </mxGeometry>
        </mxCell>
        <mxCell id="arF6y5kHUs7Ulyn1KEfK-28" value="3. set value" style="edgeLabel;html=1;align=center;verticalAlign=middle;resizable=0;points=[];" vertex="1" connectable="0" parent="arF6y5kHUs7Ulyn1KEfK-27">
          <mxGeometry x="-0.0476" y="-2" relative="1" as="geometry">
            <mxPoint x="1" as="offset" />
          </mxGeometry>
        </mxCell>
        <mxCell id="arF6y5kHUs7Ulyn1KEfK-29" value="suspend" style="rounded=0;whiteSpace=wrap;html=1;fillColor=#f8cecc;strokeColor=#b85450;" vertex="1" parent="1">
          <mxGeometry x="-120" y="200" width="120" height="40" as="geometry" />
        </mxCell>
        <mxCell id="arF6y5kHUs7Ulyn1KEfK-30" value="" style="endArrow=classic;html=1;rounded=0;entryX=0.5;entryY=0;entryDx=0;entryDy=0;exitX=0.5;exitY=1;exitDx=0;exitDy=0;" edge="1" parent="1" source="arF6y5kHUs7Ulyn1KEfK-7" target="arF6y5kHUs7Ulyn1KEfK-29">
          <mxGeometry width="50" height="50" relative="1" as="geometry">
            <mxPoint x="40" y="201" as="sourcePoint" />
            <mxPoint x="-70" y="190" as="targetPoint" />
          </mxGeometry>
        </mxCell>
        <mxCell id="arF6y5kHUs7Ulyn1KEfK-31" value="4" style="edgeLabel;html=1;align=center;verticalAlign=middle;resizable=0;points=[];" vertex="1" connectable="0" parent="arF6y5kHUs7Ulyn1KEfK-30">
          <mxGeometry x="-0.0863" y="2" relative="1" as="geometry">
            <mxPoint as="offset" />
          </mxGeometry>
        </mxCell>
        <mxCell id="arF6y5kHUs7Ulyn1KEfK-57" value="" style="edgeStyle=orthogonalEdgeStyle;rounded=0;orthogonalLoop=1;jettySize=auto;html=1;" edge="1" parent="1" source="arF6y5kHUs7Ulyn1KEfK-32" target="arF6y5kHUs7Ulyn1KEfK-50">
          <mxGeometry relative="1" as="geometry" />
        </mxCell>
        <mxCell id="arF6y5kHUs7Ulyn1KEfK-32" value="fetch value" style="rounded=0;whiteSpace=wrap;html=1;fillColor=#f8cecc;strokeColor=#b85450;" vertex="1" parent="1">
          <mxGeometry x="-280" y="240" width="120" height="40" as="geometry" />
        </mxCell>
        <mxCell id="arF6y5kHUs7Ulyn1KEfK-33" value="" style="endArrow=classic;html=1;rounded=0;exitX=0;exitY=0.5;exitDx=0;exitDy=0;entryX=1;entryY=0.5;entryDx=0;entryDy=0;" edge="1" parent="1" source="arF6y5kHUs7Ulyn1KEfK-29" target="arF6y5kHUs7Ulyn1KEfK-32">
          <mxGeometry width="50" height="50" relative="1" as="geometry">
            <mxPoint x="-170" y="230" as="sourcePoint" />
            <mxPoint x="-120" y="180" as="targetPoint" />
          </mxGeometry>
        </mxCell>
        <mxCell id="arF6y5kHUs7Ulyn1KEfK-34" value="5" style="edgeLabel;html=1;align=center;verticalAlign=middle;resizable=0;points=[];" vertex="1" connectable="0" parent="arF6y5kHUs7Ulyn1KEfK-33">
          <mxGeometry x="0.25" y="1" relative="1" as="geometry">
            <mxPoint y="1" as="offset" />
          </mxGeometry>
        </mxCell>
        <mxCell id="arF6y5kHUs7Ulyn1KEfK-35" value="" style="endArrow=classic;html=1;rounded=0;entryX=1;entryY=0.5;entryDx=0;entryDy=0;" edge="1" parent="1" target="arF6y5kHUs7Ulyn1KEfK-32">
          <mxGeometry width="50" height="50" relative="1" as="geometry">
            <mxPoint x="40" y="259" as="sourcePoint" />
            <mxPoint x="-120" y="180" as="targetPoint" />
          </mxGeometry>
        </mxCell>
        <mxCell id="arF6y5kHUs7Ulyn1KEfK-36" value="6. fetch value" style="edgeLabel;html=1;align=center;verticalAlign=middle;resizable=0;points=[];" vertex="1" connectable="0" parent="arF6y5kHUs7Ulyn1KEfK-35">
          <mxGeometry x="0.069" y="2" relative="1" as="geometry">
            <mxPoint as="offset" />
          </mxGeometry>
        </mxCell>
        <mxCell id="arF6y5kHUs7Ulyn1KEfK-44" value="" style="endArrow=none;html=1;rounded=0;" edge="1" parent="1">
          <mxGeometry width="50" height="50" relative="1" as="geometry">
            <mxPoint x="-320" y="360" as="sourcePoint" />
            <mxPoint x="-320" y="-40" as="targetPoint" />
          </mxGeometry>
        </mxCell>
        <mxCell id="arF6y5kHUs7Ulyn1KEfK-47" value="loop" style="edgeLabel;html=1;align=center;verticalAlign=middle;resizable=0;points=[];" vertex="1" connectable="0" parent="arF6y5kHUs7Ulyn1KEfK-44">
          <mxGeometry x="0.0266" relative="1" as="geometry">
            <mxPoint as="offset" />
          </mxGeometry>
        </mxCell>
        <mxCell id="arF6y5kHUs7Ulyn1KEfK-45" value="" style="endArrow=none;html=1;rounded=0;" edge="1" parent="1">
          <mxGeometry width="50" height="50" relative="1" as="geometry">
            <mxPoint x="-320" y="-40" as="sourcePoint" />
            <mxPoint x="-220" y="-40" as="targetPoint" />
          </mxGeometry>
        </mxCell>
        <mxCell id="arF6y5kHUs7Ulyn1KEfK-46" value="" style="endArrow=classic;html=1;rounded=0;entryX=0.5;entryY=0;entryDx=0;entryDy=0;" edge="1" parent="1" target="arF6y5kHUs7Ulyn1KEfK-5">
          <mxGeometry width="50" height="50" relative="1" as="geometry">
            <mxPoint x="-220" y="-40" as="sourcePoint" />
            <mxPoint x="-130" y="80" as="targetPoint" />
          </mxGeometry>
        </mxCell>
        <mxCell id="arF6y5kHUs7Ulyn1KEfK-48" value="" style="endArrow=classic;html=1;rounded=0;strokeWidth=2;" edge="1" parent="1">
          <mxGeometry width="50" height="50" relative="1" as="geometry">
            <mxPoint x="-400" y="-40" as="sourcePoint" />
            <mxPoint x="-400" y="320" as="targetPoint" />
          </mxGeometry>
        </mxCell>
        <mxCell id="arF6y5kHUs7Ulyn1KEfK-49" value="执行顺序" style="text;html=1;align=center;verticalAlign=middle;whiteSpace=wrap;rounded=0;" vertex="1" parent="1">
          <mxGeometry x="-473" y="125" width="60" height="30" as="geometry" />
        </mxCell>
        <mxCell id="arF6y5kHUs7Ulyn1KEfK-55" value="" style="edgeStyle=orthogonalEdgeStyle;rounded=0;orthogonalLoop=1;jettySize=auto;html=1;" edge="1" parent="1" source="arF6y5kHUs7Ulyn1KEfK-50" target="arF6y5kHUs7Ulyn1KEfK-54">
          <mxGeometry relative="1" as="geometry" />
        </mxCell>
        <mxCell id="arF6y5kHUs7Ulyn1KEfK-56" value="yes" style="edgeLabel;html=1;align=center;verticalAlign=middle;resizable=0;points=[];" vertex="1" connectable="0" parent="arF6y5kHUs7Ulyn1KEfK-55">
          <mxGeometry x="0.0222" y="1" relative="1" as="geometry">
            <mxPoint as="offset" />
          </mxGeometry>
        </mxCell>
        <mxCell id="arF6y5kHUs7Ulyn1KEfK-50" value="value==nullopt?" style="strokeWidth=2;html=1;shape=mxgraph.flowchart.decision;whiteSpace=wrap;" vertex="1" parent="1">
          <mxGeometry x="-275" y="320" width="110" height="80" as="geometry" />
        </mxCell>
        <mxCell id="arF6y5kHUs7Ulyn1KEfK-51" value="" style="endArrow=none;html=1;rounded=0;entryX=0;entryY=0.5;entryDx=0;entryDy=0;entryPerimeter=0;" edge="1" parent="1" target="arF6y5kHUs7Ulyn1KEfK-50">
          <mxGeometry width="50" height="50" relative="1" as="geometry">
            <mxPoint x="-320" y="360" as="sourcePoint" />
            <mxPoint x="-90" y="220" as="targetPoint" />
          </mxGeometry>
        </mxCell>
        <mxCell id="arF6y5kHUs7Ulyn1KEfK-52" value="no" style="edgeLabel;html=1;align=center;verticalAlign=middle;resizable=0;points=[];" vertex="1" connectable="0" parent="arF6y5kHUs7Ulyn1KEfK-51">
          <mxGeometry x="-0.2" y="1" relative="1" as="geometry">
            <mxPoint as="offset" />
          </mxGeometry>
        </mxCell>
        <mxCell id="arF6y5kHUs7Ulyn1KEfK-54" value="exit loop" style="ellipse;whiteSpace=wrap;html=1;aspect=fixed;" vertex="1" parent="1">
          <mxGeometry x="-120" y="330" width="60" height="60" as="geometry" />
        </mxCell>
      </root>
    </mxGraphModel>
  </diagram>
</mxfile>
